<svg xmlns="http://www.w3.org/2000/svg">
  <defs>
    <symbol id="wine-logo" viewBox="0 0 100 29">
      <path d="M99.1041 28.3738C97.6707 28.5951 95.9387 28.9974 90.6231 28.9974C84.8098 28.9974 80.3105 27.4083 80.3105 19.7445V10.2502C80.3105 2.58646 84.8298 0.997375 90.6231 0.997375C95.9387 0.997375 97.6707 1.39967 99.1041 1.62093C99.781 1.70139 100 1.94278 100 2.56634V5.48301C100 5.98588 99.6018 6.38818 99.1041 6.38818H89.986C87.3979 6.38818 86.4622 7.29335 86.4622 10.2704V12.0807H98.5666C99.0643 12.0807 99.4624 12.483 99.4624 12.9859V16.2445C99.4624 16.7474 99.0643 17.1497 98.5666 17.1497H86.4622V19.7847C86.4622 22.7617 87.3979 23.6669 89.986 23.6669H99.1041C99.6018 23.6669 100 24.0692 100 24.5721V27.4686C100 28.052 99.781 28.2934 99.1041 28.3738Z" fill="#111111"/>
      <path d="M46.6058 2.54621L42.1862 27.5692C42.0866 28.0319 41.7283 28.4342 41.2903 28.4342H40.8324C40.4342 28.4342 40.1953 28.1123 40.1953 27.7502C40.1953 27.6497 40.1953 27.6094 40.1953 27.5692L44.615 2.54621C44.7145 2.08357 45.0729 1.68127 45.5109 1.68127H45.9688C46.3669 1.68127 46.6058 2.00311 46.6058 2.36518C46.6058 2.46576 46.6058 2.50598 46.6058 2.54621Z" fill="#111111"/>
      <path d="M35.3175 2.44564L31.6743 24.7732C31.2761 27.6094 29.9821 28.4342 27.6528 28.4342H25.2439C23.2331 28.4342 22.1581 27.4485 21.5409 24.8336L18.0171 13.6094C17.9375 13.2071 17.9375 13.1066 17.7583 13.1066C17.5791 13.1066 17.5393 13.187 17.4398 13.6094L13.8961 24.8336C13.2789 27.4485 12.2039 28.4342 10.1931 28.4342H7.76428C5.435 28.4342 4.14095 27.6296 3.74278 24.7732L0 2.44564C0 2.40541 0 2.36518 0 2.30484C0 1.90254 0.358351 1.68127 0.75652 1.68127H5.49473C5.85308 1.68127 6.21143 2.00311 6.25124 2.48587L9.01852 22.279C9.05833 22.6813 9.05833 22.9629 9.23751 22.9629C9.41668 22.9629 9.41668 22.7014 9.49632 22.279L13.3386 10.1094C13.5975 9.02323 14.2345 8.07783 16.1457 8.07783H19.2315C21.1427 8.07783 21.7798 9.02323 22.0386 10.1094L25.8809 22.279C25.9606 22.6813 25.9606 22.9629 26.1398 22.9629C26.3189 22.9629 26.3189 22.7014 26.3588 22.279L29.0265 2.48587C29.0663 1.983 29.4247 1.68127 29.783 1.68127H34.5212C34.9194 1.68127 35.2777 1.90254 35.2777 2.30484C35.3175 2.36518 35.3175 2.40541 35.3175 2.44564Z" fill="#111111"/>
      <path d="M73.5219 1.68127H72.9844C72.5265 1.68127 72.208 2.08357 72.1283 2.54621L68.0272 26.1411C67.9874 26.3221 67.7485 26.5031 67.7087 26.5031H67.6888C67.6689 26.5031 67.6689 26.5031 67.649 26.5031C67.5096 26.483 67.4698 26.3623 67.43 26.2014L60.0439 3.10944C59.7652 2.32495 59.1879 1.70139 58.0133 1.70139C57.9536 1.70139 57.8938 1.70139 57.8341 1.70139C57.8142 1.70139 57.7744 1.70139 57.7545 1.70139C56.8586 1.80197 55.8234 2.3853 55.5446 3.91403L51.3838 27.5692C51.3838 27.6094 51.3838 27.6698 51.3838 27.7502C51.3838 28.1123 51.6028 28.4342 52.0209 28.4342H52.4788C52.9366 28.4342 53.295 28.0319 53.3746 27.5692L57.5355 3.91403C57.5753 3.71289 57.6748 3.63243 57.7545 3.61231C57.7744 3.61231 57.7744 3.59219 57.7943 3.59219C57.8142 3.59219 57.8142 3.59219 57.8341 3.59219C57.9934 3.61231 58.1526 3.733 58.1925 3.91403L65.5785 26.9658C65.9368 28.1123 66.5341 28.4342 67.649 28.4342H67.6689C68.7837 28.414 69.7792 27.6094 70.038 26.1612L74.1391 2.56633C74.1391 2.5261 74.1391 2.42553 74.1391 2.3853C74.159 2.00311 73.9798 1.68127 73.5219 1.68127Z" fill="#111111"/>
    </symbol>
    <symbol id="menu-icon" fill="none" viewBox="0 0 24 24" stroke="currentColor" stroke-width="2">
      <path stroke-linecap="round" stroke-linejoin="round" d="M4 6h16M4 12h16M4 18h16" />
    </symbol>
    <symbol id="close-icon" fill="none" viewBox="0 0 24 24" stroke="currentColor" stroke-width="2">
      <path stroke-linecap="round" stroke-linejoin="round" d="M6 18L18 6M6 6l12 12" />
    </symbol>
    <symbol id="back-icon" fill="none" viewBox="0 0 24 24" stroke="currentColor" stroke-width="2">
      <path stroke-linecap="round" stroke-linejoin="round" d="M15 19l-7-7 7-7" />
    </symbol>
    <symbol id="search-icon" fill="none" viewBox="0 0 24 24" stroke="currentColor" stroke-width="2">
      <path stroke-linecap="round" stroke-linejoin="round" d="M21 21l-6-6m2-5a7 7 0 11-14 0 7 7 0 0114 0z" />
    </symbol>
    <symbol id="account-icon" fill="none" viewBox="0 0 24 24" stroke="currentColor" stroke-width="2">
      <path stroke-linecap="round" stroke-linejoin="round" d="M5.121 17.804A13.937 13.937 0 0112 16c2.5 0 4.847.655 6.879 1.804M15 10a3 3 0 11-6 0 3 3 0 016 0zm6 2a9 9 0 11-18 0 9 9 0 0118 0z" />
    </symbol>
    <symbol id="cart-icon" viewBox="0 0 24 24" stroke="currentColor" stroke-width="2">
      <path stroke-linecap="round" stroke-linejoin="round" d="M16 11V7a4 4 0 00-8 0v4M5 9h14l1 12H4L5 9z" />
    </symbol>
  </defs>
</svg>
